<svg width="24" height="25" viewBox="0 0 24 25" fill="none" xmlns="http://www.w3.org/2000/svg">
<path d="M23.2093 16.3011C22.9914 16.1135 14.2995 9.81249 14.2995 9.81249C14.2874 9.80038 14.2753 9.78827 14.2693 9.78222C13.9364 9.44326 13.9545 9.15273 13.9303 8.64429C13.9303 8.64429 13.8758 4.46782 13.7971 3.07567C13.7185 1.68351 12.9921 0.769531 12.1447 0.769531C11.2973 0.769531 10.577 1.67746 10.4983 3.06961C10.4197 4.46177 10.3652 8.63823 10.3652 8.63823C10.341 9.14667 10.3591 9.43721 10.0262 9.77617C10.0141 9.78827 10.002 9.80038 9.99595 9.80643C9.99595 9.80643 1.31011 16.1074 1.08616 16.2951C0.862203 16.4827 0.529297 16.7672 0.529297 17.3967C0.529297 18.1352 0.747199 18.2259 1.1709 18.0988C1.1709 18.0988 9.65699 15.708 9.97174 15.6293C10.2865 15.5506 10.4499 15.6656 10.4741 16.0832C10.4983 16.5009 10.5225 18.8918 10.5286 19.1702C10.5347 19.4486 10.4923 19.4547 10.3531 19.6181L8.41616 22.0877C8.31326 22.2087 8.25273 22.36 8.25273 22.5295C8.25273 22.5295 8.25273 22.8987 8.25273 23.2801C8.25273 23.6614 8.42221 23.7219 8.74906 23.5767C9.07592 23.4314 10.7223 22.5235 10.7223 22.5235C10.7647 22.5053 11.0007 22.4085 11.1097 22.4085C11.3639 22.4085 11.5939 22.4024 11.6423 22.7837C11.721 23.4738 11.9389 24.0125 12.1568 24.0125C12.3747 24.0125 12.5926 23.4738 12.6713 22.7837C12.7137 22.4024 12.9497 22.4085 13.204 22.4085C13.3129 22.4085 13.549 22.5053 13.5913 22.5235C13.5913 22.5235 15.2377 23.4314 15.5646 23.5767C15.8914 23.7219 16.0609 23.6614 16.0609 23.2801C16.0609 22.8987 16.0609 22.5295 16.0609 22.5295C16.0609 22.36 16.0004 22.2027 15.8975 22.0877L13.9606 19.6181C13.8214 19.4547 13.785 19.4426 13.785 19.1702C13.785 18.8978 13.8153 16.5009 13.8395 16.0832C13.8637 15.6656 14.0271 15.5506 14.3419 15.6293C14.6566 15.708 23.1427 18.0988 23.1427 18.0988C23.5725 18.2259 23.7843 18.1352 23.7843 17.3967C23.7662 16.7733 23.4333 16.4888 23.2093 16.3011Z" fill="#B50024"/>
</svg>
