<svg width="17" height="15" viewBox="0 0 17 15" fill="none" xmlns="http://www.w3.org/2000/svg">
<path fill-rule="evenodd" clip-rule="evenodd" d="M8.5012 12.3217H8.50134H13.0901V13.7177C13.0901 15.4173 15.6419 15.4375 15.6419 13.7177V12.3217H17V7.9496C17 6.77612 16.0194 6.15599 15.4662 6.08832L14.0696 2.65194C13.8067 1.99756 13.2371 1.43827 12.1636 1.43827H10.1912V0.54106C10.1912 0.182211 9.98922 0 9.66061 0H8.50134H8.5012H8.4988H8.49862H7.3613C7.03269 0 6.8307 0.182211 6.8307 0.54106V1.43827H4.83539C3.76191 1.43827 3.19231 1.99756 2.92941 2.65194L1.53284 6.08832C0.979626 6.15599 0 6.77612 0 7.9496V12.3217H1.35815V13.7177C1.35815 15.4375 3.90987 15.4173 3.90987 13.7177V12.3217H8.49862H8.4988H8.5012ZM8.49655 6H8.49913H8.5017H14L12.9525 3.59548C12.8215 3.25187 12.6251 3.0037 12.1668 3H8.5017H8.49913H8.49655H4.83333C4.375 3.0037 4.17848 3.25187 4.04753 3.59548L3 6H8.49655ZM3.00002 9C2.44776 9 2 8.55223 2 7.99998C2 7.44773 2.44776 7 3.00002 7C3.55228 7 4 7.44773 4 7.99998C4 8.55223 3.55228 9 3.00002 9ZM15 7.99998C15 8.55223 14.5523 9 14 9C13.4478 9 13 8.55223 13 7.99998C13 7.44773 13.4478 7 14 7C14.5523 7 15 7.44773 15 7.99998Z" fill="#B50024"/>
</svg>
