<svg width="17" height="20" viewBox="0 0 17 20" fill="none" xmlns="http://www.w3.org/2000/svg">
<path fill-rule="evenodd" clip-rule="evenodd" d="M4.499 0.00361454L8.51525 0L12.501 0.00361454C14.3714 0.00361454 15.7482 1.6064 15.7482 3.35249V12.7197C15.7482 14.4113 14.5072 15.7999 13.2599 16.0143L17 20H14.3367L12.1656 17.8162H8.49661H4.8344L2.65052 20H0L3.74014 16.0143C2.49277 15.7999 1.25179 14.4113 1.25179 12.7197V3.35249C1.25179 1.60641 2.62856 0.00361454 4.499 0.00361454ZM12.3853 2H4.61471C3.5597 2 3.00007 2.85278 3.00007 3.82957V6.17997C2.99185 7.30938 3.72201 8 4.61471 8H8.50338H12.3853C13.278 8 14.0082 7.30938 13.9999 6.17997V3.82957C13.9999 2.85278 13.4403 2 12.3853 2ZM4.5 11C5.32886 11 6 11.6711 6 12.5C6 13.3288 5.32886 14 4.5 14C3.67114 14 3 13.3288 3 12.5C3 11.6711 3.67114 11 4.5 11ZM14 12.5C14 11.6711 13.3275 11 12.4991 11C11.6707 11 11 11.6711 11 12.5C11 13.3288 11.6707 14 12.4991 14C13.3275 14 14 13.3288 14 12.5Z" fill="#B50024"/>
</svg>
