<svg width="19" height="26" viewBox="0 0 19 26" fill="none" xmlns="http://www.w3.org/2000/svg">
<path fill-rule="evenodd" clip-rule="evenodd" d="M9.5 18C14.1944 18 18 14.1944 18 9.5C18 4.80558 14.1944 1 9.5 1C4.80558 1 1 4.80558 1 9.5C1 14.1944 4.80558 18 9.5 18Z" fill="#B50024" stroke="#B50024"/>
<path fill-rule="evenodd" clip-rule="evenodd" d="M9.47179 14C12.0645 14 14.1662 11.9853 14.1662 9.5C14.1662 7.01472 12.0645 5 9.47179 5C6.87912 5 4.77734 7.01472 4.77734 9.5C4.77734 11.9853 6.87912 14 9.47179 14Z" fill="white"/>
<path fill-rule="evenodd" clip-rule="evenodd" d="M9.5 26C9.284 26 8.97201 25.6872 8.97201 25.6872C-0.147905 15.1729 1.05208 10 1.05208 10C1.05208 10 3.69206 18.4451 9.5 18.4692" fill="#B50024"/>
<path fill-rule="evenodd" clip-rule="evenodd" d="M9.5 26C9.716 26 10.028 25.6872 10.028 25.6872C19.1479 15.1729 17.9479 10 17.9479 10C17.9479 10 15.3079 18.4451 9.5 18.4692" fill="#B50024"/>
</svg>
